<svg width="256" height="256" viewBox="0 0 256 256" fill="none" xmlns="http://www.w3.org/2000/svg">
<rect width="222" height="222" transform="translate(17 17)" fill="white"/>
<path fill-rule="evenodd" clip-rule="evenodd" d="M10.6667 30.2702C10.6667 25.071 12.7321 20.0848 16.4084 16.4084C20.0848 12.732 25.0711 10.6667 30.2702 10.6667H225.718C228.293 10.6667 230.843 11.1737 233.22 12.1589C235.599 13.1441 237.76 14.588 239.581 16.4084C241.401 18.2288 242.845 20.3899 243.83 22.7682C244.815 25.1467 245.323 27.6958 245.323 30.2702V225.718C245.323 228.293 244.815 230.843 243.83 233.22C242.845 235.599 241.401 237.76 239.581 239.581C237.76 241.401 235.599 242.845 233.22 243.83C230.843 244.815 228.293 245.323 225.718 245.323H30.2702C25.0711 245.323 20.0848 243.257 16.4084 239.581C12.7321 235.904 10.6667 230.918 10.6667 225.718V30.2702ZM103.551 100.129H135.328V116.096C139.908 106.914 151.646 98.6625 169.279 98.6625C203.079 98.6625 211.102 116.937 211.102 150.467V212.569H176.881V158.103C176.881 139.009 172.301 128.239 160.651 128.239C144.494 128.239 137.772 139.85 137.772 158.103V212.569H103.551V100.129ZM44.8873 211.102H79.108V98.6625H44.8873V211.102ZM83.9966 61.9975C83.9966 64.8865 83.4275 67.7472 82.3221 70.4162C81.2165 73.0852 79.596 75.5104 77.5532 77.5532C75.5104 79.5959 73.0853 81.2164 70.4162 82.322C67.7472 83.4275 64.8865 83.9966 61.9976 83.9966C59.1087 83.9966 56.248 83.4275 53.579 82.322C50.9099 81.2164 48.4848 79.5959 46.4419 77.5532C44.3992 75.5104 42.7788 73.0852 41.6732 70.4162C40.5677 67.7472 39.9986 64.8865 39.9986 61.9975C39.9986 56.1631 42.3164 50.5676 46.4419 46.4419C50.5676 42.3164 56.1631 39.9986 61.9976 39.9986C67.8321 39.9986 73.4276 42.3164 77.5532 46.4419C81.6788 50.5676 83.9966 56.1631 83.9966 61.9975Z" fill="#2867B2"/>
</svg>
